<svg xmlns="http://www.w3.org/2000/svg" width="24" height="24" viewBox="0 0 24 24" fill="none"><g clip-path="url(#clip0_2890_17629)"><g clip-path="url(#clip1_2890_17629)"><mask id="mask0_2890_17629" style="mask-type:luminance" maskUnits="userSpaceOnUse" x="-4" y="0" width="32" height="24"><rect x="-4" width="32" height="24" fill="white"></rect></mask><g mask="url(#mask0_2890_17629)"><path fill-rule="evenodd" clip-rule="evenodd" d="M-4 0V24H28V0H-4Z" fill="#2E42A5"></path><mask id="mask1_2890_17629" style="mask-type:luminance" maskUnits="userSpaceOnUse" x="-4" y="0" width="32" height="24"><path fill-rule="evenodd" clip-rule="evenodd" d="M-4 0V24H28V0H-4Z" fill="white"></path></mask><g mask="url(#mask1_2890_17629)"><mask id="mask2_2890_17629" style="mask-type:luminance" maskUnits="userSpaceOnUse" x="-4" y="0" width="32" height="24"><rect x="-4" width="32" height="24" fill="white"></rect></mask><g mask="url(#mask2_2890_17629)"><path d="M-5.87181 0.621614L-2.81049 -3.21373L30 23.3788L26.9387 27.2141L-5.87181 0.621614Z" fill="white"></path><path fill-rule="evenodd" clip-rule="evenodd" d="M-5.73047 -0.384304L-4.67599 -1.68213L11.3455 11.8978L13.844 11.065L30.5752 24.7925L29.5457 26.1102L13.5215 12.9351L11.0034 13.7745L-5.73047 -0.384304Z" fill="#E31D1C"></path><rect width="4.9073" height="47.3017" transform="matrix(-0.62383 -0.78156 -0.78156 0.62383 32.0793 -0.836304)" fill="white"></rect><path fill-rule="evenodd" clip-rule="evenodd" d="M28.8586 0.615696L27.8042 -0.682129L12.7827 11.8978L10.2842 11.065L-5.447 23.7925L-4.41751 25.1102L10.6066 12.9351L13.1248 13.7745L28.8586 0.615696Z" fill="#E31D1C"></path><path fill-rule="evenodd" clip-rule="evenodd" d="M15.5099 -1H8.49401V8.28571H-20.6868V15.7143H8.49401V25H15.5099V15.7143H44.7418V8.28571H15.5099V-1Z" fill="#F50100"></path><path fill-rule="evenodd" clip-rule="evenodd" d="M8.49401 8.28571H-28.6868V15.7143H8.49401V41H15.5099V15.7143H52.7418V8.28571H15.5099V-25H8.49401V8.28571ZM9.88687 -23.6071V9.67857H-27.2939V14.3214H9.88687V39.6071H14.117V14.3214H51.3489V9.67857H14.117V-23.6071H9.88687Z" fill="white"></path></g></g></g></g><g style="mix-blend-mode:hard-light" opacity="0.12"><rect width="24" height="24" rx="12" fill="white"></rect></g><rect width="24" height="24" fill="url(#paint0_linear_2890_17629)" fill-opacity="0.64" style="mix-blend-mode:overlay"></rect></g><defs><linearGradient id="paint0_linear_2890_17629" x1="24" y1="1.19273e-06" x2="-4.48665" y2="16.0237" gradientUnits="userSpaceOnUse"><stop stop-color="white" stop-opacity="0.3"></stop><stop offset="0.262741" stop-opacity="0.27"></stop><stop offset="0.369956" stop-color="white" stop-opacity="0.26"></stop><stop offset="0.487001" stop-opacity="0.55"></stop><stop offset="0.594445" stop-opacity="0.24"></stop><stop offset="0.736408" stop-color="white" stop-opacity="0.3"></stop><stop offset="0.901459" stop-color="#272727" stop-opacity="0.22"></stop><stop offset="1" stop-opacity="0.2"></stop></linearGradient><clipPath id="clip0_2890_17629"><rect width="24" height="24" rx="12" fill="white"></rect></clipPath><clipPath id="clip1_2890_17629"><rect width="24" height="24" fill="white"></rect></clipPath></defs></svg>